<svg width="24" height="25" viewBox="0 0 24 25" fill="none" xmlns="http://www.w3.org/2000/svg">
<path d="M22 4.62402C21.22 5.08702 19.655 5.71802 18.735 5.90002C18.708 5.90702 18.686 5.91602 18.66 5.92302C17.847 5.12102 16.733 4.62402 15.5 4.62402C13.015 4.62402 11 6.63902 11 9.12402C11 9.25502 10.989 9.49602 11 9.62402C7.647 9.62402 5.095 7.86802 3.265 5.62402C3.066 6.12402 2.979 6.91402 2.979 7.65602C2.979 9.05702 4.074 10.433 5.779 11.286C5.465 11.367 5.119 11.425 4.759 11.425C4.178 11.425 3.563 11.272 3 10.808C3 10.825 3 10.841 3 10.859C3 12.817 5.078 14.15 6.926 14.521C6.551 14.742 5.795 14.764 5.426 14.764C5.166 14.764 4.246 14.645 4 14.599C4.514 16.204 6.368 17.106 8.135 17.138C6.753 18.222 5.794 18.624 2.964 18.624H2C3.788 19.77 6.065 20.625 8.347 20.625C15.777 20.625 20 14.962 20 9.62402C20 9.53802 19.998 9.35802 19.995 9.17702C19.995 9.15902 20 9.14202 20 9.12402C20 9.09702 19.992 9.07102 19.992 9.04402C19.989 8.90802 19.986 8.78102 19.983 8.71502C20.773 8.14502 21.458 7.43402 22 6.62402C21.275 6.94602 20.497 7.16202 19.68 7.26002C20.514 6.76002 21.699 5.56802 22 4.62402Z" fill="#310A90"/>
</svg>
