<svg width="24" height="25" viewBox="0 0 24 25" fill="none" xmlns="http://www.w3.org/2000/svg">
<path d="M8 3.625C5.239 3.625 3 5.864 3 8.625V16.625C3 19.386 5.239 21.625 8 21.625H16C18.761 21.625 21 19.386 21 16.625V8.625C21 5.864 18.761 3.625 16 3.625H8ZM18 5.625C18.552 5.625 19 6.073 19 6.625C19 7.177 18.552 7.625 18 7.625C17.448 7.625 17 7.177 17 6.625C17 6.073 17.448 5.625 18 5.625ZM12 7.625C14.761 7.625 17 9.864 17 12.625C17 15.386 14.761 17.625 12 17.625C9.239 17.625 7 15.386 7 12.625C7 9.864 9.239 7.625 12 7.625ZM12 9.625C11.2044 9.625 10.4413 9.94107 9.87868 10.5037C9.31607 11.0663 9 11.8294 9 12.625C9 13.4206 9.31607 14.1837 9.87868 14.7463C10.4413 15.3089 11.2044 15.625 12 15.625C12.7956 15.625 13.5587 15.3089 14.1213 14.7463C14.6839 14.1837 15 13.4206 15 12.625C15 11.8294 14.6839 11.0663 14.1213 10.5037C13.5587 9.94107 12.7956 9.625 12 9.625Z" fill="#310A90"/>
</svg>
